<svg xmlns="http://www.w3.org/2000/svg" width="639" height="81.171" viewBox="0 0 639 81.171">
  <g id="Layer_2" data-name="Layer 2" transform="translate(0 0.001)">
    <g id="Layer_1" data-name="Layer 1">
      <path id="Path_2" data-name="Path 2" d="M605.38,36.05v12h5.25l1-2.38c3.64,2.52,8,3.15,12.32,3.15,7.22,0,15-2.94,15-11.41,0-13.65-21.69-9.1-21.69-15.12,0-2.38,3.77-2.73,5.38-2.73a10.5,10.5,0,0,1,5.54,1.4,8,8,0,0,1,3.57,4.34h5.32V14.84h-4.84l-.84,2.1A22.64,22.64,0,0,0,620.57,14c-7,0-15.67,2.66-15.67,11.06,0,12.81,21.7,9.24,21.7,15.12,0,3.08-3.93,3.08-6,3.08a11.09,11.09,0,0,1-6-2,8.15,8.15,0,0,1-3.5-5.18Zm-61-15.4h1.46c1.48,0,3.29.49,4.35,4.27l6.44,22.89h12.45l4.91-16h.14l4.69,16h12.45L598.1,25c1.06-3.5,2.18-4.34,3.64-4.34H604v-5.6H589v5.6h1c1.4,0,2.45.28,2.45,1.26a7.187,7.187,0,0,1-.27,1.89L587.6,40.39h-.13l-5.05-17.57a4.731,4.731,0,0,1-.13-.91c0-1,1.05-1.26,2.44-1.26h1.62v-5.6H567v5.6h1.26c1.39,0,2.44.28,2.44,1.26a2.38,2.38,0,0,1-.13.91L565.48,40h-.13l-4.62-17.15a4.818,4.818,0,0,1-.14-.91c0-1,1-1.26,2.45-1.26h1.25v-5.6H544.35ZM522.6,27.44V25.62c0-3.57,1.9-6,5.33-6s5.25,2.45,5.25,6v1.82Zm23,5.6c0-10.92-6.37-19-17.79-19-10,0-17.71,6.58-17.71,17.43s5.74,17.43,17.71,17.43c7.56,0,15.75-3.64,16.87-12H536.5c-.63,4.13-4.62,6-7.07,6-5.88,0-7-4.9-7-9.8ZM479.67,1.4H457.13V7.56h4.34a2.52,2.52,0,0,1,2.73,2.8V38.85a2.52,2.52,0,0,1-2.73,2.8H457.2v6.16h21.63V41.65h-4.27a2.52,2.52,0,0,1-2.73-2.8V13.3H472l19.46,34.51H505.6V10.36a2.52,2.52,0,0,1,2.73-2.8h4.2V1.4H490.94V7.56h4.27a2.52,2.52,0,0,1,2.73,2.8v23h-.14ZM407.9,55.09c0-2.45,4.69-2.87,10.57-2.87S429,52.64,429,55.09c0,2-4.69,2.87-10.57,2.87s-10.57-.84-10.57-2.87M410.8,43.4c-1.12,0-3.57-.77-3.57-2.52a2.11,2.11,0,0,1,1.4-2A19.14,19.14,0,0,0,415.81,40c8.68,0,16.1-4.06,16.1-13.23a14.8,14.8,0,0,0-2.45-7.21c2.38-2.73,4.48-1.75,6-1.47a4.42,4.42,0,0,0-2,3.5,3.79,3.79,0,0,0,3.85,4c3.22,0,5.18-1.82,5.18-5,0-4.2-3.78-6.58-7.63-6.58a11.69,11.69,0,0,0-7.7,3.15A21.19,21.19,0,0,0,416.58,14C409.23,14,401,17.92,401,26.32c0,5,1.47,8.33,4.76,10.64-3.71,1.47-6,2.94-6,7.14,0,3.08,2.66,5.39,5.32,6.3v.14c-2.73.49-5.88,2-5.88,5.25,0,5.18,7.56,6.86,17.64,6.86,10.92,0,20.44-1.75,20.44-10.5,0-7.28-6.23-8.75-12.25-8.75Zm5.6-25.13c3.08,0,4.06,3.57,4.06,8.75s-1,8.68-4.06,8.68-4.06-3.5-4.06-8.68,1-8.75,4.06-8.75m-62.58-3.22v5.6h2.87c2,0,2.52,1.05,2.52,3V39.2c0,2-.49,3-2.52,3h-2.8v5.6h21.14V42.2h-1.68c-2,0-2.52-1.05-2.52-3v-13c0-2.94,2-5.95,5.25-5.95,4.76,0,5.39,2.8,5.39,6.86v12c0,2-.49,3-2.52,3h-1.47v5.6h20.79v-5.6h-2.66c-2,0-2.52-1.05-2.52-3V25.9c0-7.28-2.66-11.9-10.64-11.9-5.67,0-9,2-12,6.44h-.14V15.05ZM340.28,0a6,6,0,0,0-6.09,6.09,6.09,6.09,0,1,0,12.18,0A6,6,0,0,0,340.28,0m6.09,15.05H329v5.6h3.22c2,0,2.52,1.05,2.52,3V39.2c0,2-.49,3-2.52,3h-3v5.6h22.54V42.2h-2.87c-2,0-2.52-1.05-2.52-3ZM310.74,2c-.56,5.81-2.38,13-9.38,13v5.6h4.69V38.22c0,7.14,4,10.64,11.2,10.64,8.4,0,11.76-3.78,11.76-10.64V32h-5.6v5.46c0,3.22-.7,5.11-3.36,5.11a2.36,2.36,0,0,1-2.38-2.66V20.65h8.61v-5.6h-8.61V2ZM267.55,20.65h2.87c2,0,2.52,1.05,2.52,3V39.2c0,2-.49,3-2.52,3h-2.87v5.6H290V42.2h-2.87c-2,0-2.52-1.05-2.52-3V26.67c0-3.43,2.38-8.12,6-8.12a2.7,2.7,0,0,1,2.24.77,4,4,0,0,0-3.64,4.27c0,3.22,2.66,4.62,5.6,4.62,3.29,0,5.6-3.22,5.6-6.23a7.89,7.89,0,0,0-8-8c-4.13,0-6.79,3.29-8.19,6.65h-.14v-5.6H267.55Zm-19.18-1c4.2,0,5.67,3.57,5.67,11.83s-1.47,11.83-5.67,11.83-5.67-3.57-5.67-11.83,1.47-11.83,5.67-11.83m0-5.6c-10.43,0-18.06,6.23-18.06,17.43s7.63,17.43,18.06,17.43,18.06-6.23,18.06-17.43S258.8,14,248.37,14m-45.15,1.05H186.91v5.6h2.73c2,0,2.52,1.05,2.52,3V54c0,2-.49,3-2.52,3H187v5.6h22.19V57H206.3c-2,0-2.52-1-2.52-3V44.31l.14-.14c1.47,3.08,5.39,4.69,9.59,4.69,10.57,0,13.72-8.89,13.72-17.43S224.08,14,213.51,14c-4.48,0-8.12,1.89-10.15,6.16h-.14Zm6.09,5.46c3.92,0,5.53,4.34,5.53,11.2s-1.61,11.13-5.53,11.13-5.53-4.27-5.53-11.13,1.61-11.2,5.53-11.2M184.67.77h-5.81L177.6,4.06A25,25,0,0,0,164.3,0c-9.66,0-20.09,3.15-20.09,14.7,0,20.09,30.31,12,30.31,22,0,4-4.41,6-8.05,6-8.26,0-14.35-5.11-15.26-12.46H144.7V48.58h5.88l1.82-3.71c4.41,3.22,9.87,4.34,15.26,4.34,9.66,0,19.32-3.78,19.32-15,0-19.95-30.31-12.88-30.31-21.7,0-4.69,3.78-6,7.84-6,6.16,0,12.67,4.13,13.72,11.48h6.44ZM103.81,27.44V25.62c0-3.57,1.89-6,5.32-6s5.25,2.45,5.25,6v1.82Zm23,5.6c0-10.92-6.37-19-17.78-19-10,0-17.71,6.58-17.71,17.43S97,48.86,109,48.86c7.56,0,15.75-3.64,16.87-12h-8.12c-.63,4.13-4.62,6-7.07,6-5.88,0-7-4.9-7-9.8ZM48.23,1.4V7H51.1c2,0,2.52,1.05,2.52,3V39.2c0,2-.49,3-2.52,3H48.3v5.6H69.44V42.2H67.76c-2,0-2.52-1.05-2.52-3v-13c0-2.94,2-5.95,5.25-5.95,4.76,0,5.39,2.8,5.39,6.86v12c0,2-.49,3-2.52,3H71.89v5.6H92.68v-5.6H90c-2,0-2.52-1.05-2.52-3V25.9c0-7.28-2.66-11.9-10.64-11.9-5.67,0-9,2-12,6.44H64.7V1.4ZM6.51,19.18C6.51,12,8.61,7.56,16.66,7.56V38.85a2.52,2.52,0,0,1-2.73,2.8H9.59v6.16H36.75V41.65h-4.2a2.52,2.52,0,0,1-2.73-2.8V7.56C37.87,7.56,40,12,40,19.18h6.51V1.4H0V19.18ZM639,74.81c0-3.7-3.46-5.54-6.76-5.54a6.56,6.56,0,0,0-4.32,1.64c.09-3,.59-7,4.44-7a6.12,6.12,0,0,1,2.5.66v.18a1.74,1.74,0,0,0-1.37,1.75,2.08,2.08,0,0,0,2.32,1.91A2.29,2.29,0,0,0,638,66c0-2.83-4-3.94-6.2-3.94-5.75,0-8.29,5.34-8.29,10.43,0,4.8,3,8.5,8,8.5,3.88,0,7.42-2.12,7.42-6.2m-7.72-3.16c1.91,0,3.25,1.28,3.25,3.64s-1.34,3.63-3.25,3.63S628,77.64,628,75.29s1.35-3.64,3.25-3.64m-21.72,4.08c0-1.87,1.43-2.53,2.65-2.92,1.25.42,6.32,1.34,6.32,3.4s-2.74,2.56-4.47,2.56c-1.91,0-4.5-.83-4.5-3m-3.37.6c0,3.72,5.28,4.68,8.2,4.68,3.48,0,7.77-1.55,7.77-5.55,0-2.35-1.93-4.14-4-4.94,1.61-.69,3.16-1.94,3.16-3.85,0-3.21-4-4.59-6.65-4.59-3.63,0-7.77,1.2-7.77,5.55,0,2.08,1.31,3.31,3,4.32-2,.77-3.7,2-3.7,4.38m4.35-9.72c0-1.87,1.82-2.56,3.4-2.56s4.29.72,4.29,2.77a3.34,3.34,0,0,1-2.06,3c-2.23-.36-5.63-1-5.63-3.22m-19.19,9.12c0-1.87,1.43-2.53,2.65-2.92,1.26.42,6.32,1.34,6.32,3.4s-2.74,2.56-4.47,2.56c-1.91,0-4.5-.83-4.5-3m-3.37.6c0,3.72,5.28,4.68,8.2,4.68,3.49,0,7.78-1.55,7.78-5.55,0-2.35-1.94-4.14-4-4.94,1.61-.69,3.16-1.94,3.16-3.85,0-3.21-4-4.59-6.64-4.59-3.64,0-7.78,1.2-7.78,5.55,0,2.08,1.31,3.31,3,4.32-2,.77-3.7,2-3.7,4.38m4.35-9.72c0-1.87,1.82-2.56,3.4-2.56s4.29.72,4.29,2.77a3.35,3.35,0,0,1-2,3c-2.24-.36-5.64-1-5.64-3.22m-5.72,14v-2h-1.52c-1.31,0-2.08-.35-2.08-1.19V62.53h-2.48c-1.19,2.15-2.77,2.56-5.18,2.68v2h3.81V77.4c0,.84-.77,1.19-2.08,1.19h-1.64v2ZM549.92,60.8v8.14h2.21V67.6c0-3.16,1.63-4.59,4.94-4.59V77.28c0,.78-.3,1.08-1.22,1.08h-2.26v2.2h11.14v-2.2h-2.26c-.93,0-1.23-.3-1.23-1.08V63c3.31,0,5,1.43,5,4.59v1.34h2.21V60.8Zm-5,1.49a10,10,0,0,0-5.66-2.08c-3.6,0-7.39,1.79-7.39,6,0,8.52,13.29,4.68,13.29,9.77,0,1.43-1.25,2.65-3.87,2.65-4.23,0-6.68-2.14-7.09-6.14H532v8.08h2l.65-1.76a10.15,10.15,0,0,0,6.2,2.36c4.17,0,7.87-1.55,7.87-6.29,0-8.32-13.29-5-13.29-9.45,0-2,1.13-2.68,3.9-2.68,3.55,0,5.43,2.32,6.14,5.57h2.15V60.8H545.9Zm-15.2,18.27V72.22h-2.21c-.27,4.44-1.34,6.14-4.08,6.14h-6v-7h1.58c1.79,0,2.59.93,2.59,3.34v.71h2.21v-9.9H521.6v.39c0,2.41-.8,3.31-2.59,3.31h-1.58V63h5.24c4,0,4.35,1.61,4.8,5.66h2.21V60.8H510.05V63h1.34c1.55,0,1.91.39,1.91,1.67v11.6c0,1.79-.57,2.09-1.58,2.09h-1.67v2.2Z" fill="#231f20"/>
    </g>
  </g>
</svg>
